<svg width="19" height="13" viewBox="0 0 19 13" fill="none" xmlns="http://www.w3.org/2000/svg">
<path d="M7.46045 0.5957C7.66819 0.803437 7.68708 1.12851 7.51711 1.35758L7.46045 1.42321L2.41317 6.47076L7.46045 11.5183C7.66819 11.726 7.68708 12.0511 7.51711 12.2802L7.46045 12.3458C7.25272 12.5535 6.92764 12.5724 6.69857 12.4025L6.63294 12.3458L1.17164 6.88451C0.963903 6.67677 0.945018 6.3517 1.11498 6.12263L1.17164 6.057L6.63294 0.5957C6.86145 0.367189 7.23194 0.367189 7.46045 0.5957Z" fill="white" stroke="white" stroke-width="0.221053"/>
<path d="M17.5 7.15C17.859 7.15 18.15 6.85899 18.15 6.5C18.15 6.14101 17.859 5.85 17.5 5.85V7.15ZM2 7.15H17.5V5.85H2V7.15Z" fill="white"/>
</svg>
