<svg width="117" height="36" viewBox="0 0 117 36" fill="none" xmlns="http://www.w3.org/2000/svg">
<path fill-rule="evenodd" clip-rule="evenodd" d="M15.976 5.14834C16.2974 4.95055 16.7028 4.95055 17.0242 5.14834L30.0242 13.1483C30.4052 13.3828 30.5841 13.8419 30.4623 14.2723C30.3404 14.7028 29.9475 15 29.5001 15H26.5001V24C26.5001 24.5523 26.0524 25 25.5001 25C24.9478 25 24.5001 24.5523 24.5001 24V15H20.5001V24C20.5001 24.5523 20.0524 25 19.5001 25C18.9478 25 18.5001 24.5523 18.5001 24V15H14.5001V24C14.5001 24.5523 14.0524 25 13.5001 25C12.9478 25 12.5001 24.5523 12.5001 24V15H8.50009V24C8.50009 24.5523 8.05237 25 7.50009 25C6.9478 25 6.50009 24.5523 6.50009 24V15H3.50009C3.05269 15 2.65973 14.7028 2.53789 14.2723C2.41604 13.8419 2.59496 13.3828 2.97599 13.1483L15.976 5.14834ZM25.5001 13H25.967L16.5001 7.17418L7.03313 13H7.50009H13.5001H19.5001H25.5001Z" fill="url(#paint0_linear_369_1994)"/>
<path d="M4.5 24H28.5" stroke="url(#paint1_linear_369_1994)" stroke-width="2" stroke-linecap="round" stroke-linejoin="round"/>
<path d="M2.5 28H30.5" stroke="url(#paint2_linear_369_1994)" stroke-width="2" stroke-linecap="round" stroke-linejoin="round"/>
<path d="M58.644 17.312C59.636 17.536 60.42 18.032 60.996 18.8C61.588 19.552 61.884 20.416 61.884 21.392C61.884 22.832 61.388 23.96 60.396 24.776C59.404 25.592 58.012 26 56.22 26H47.844V9.08H55.956C57.684 9.08 59.036 9.464 60.012 10.232C61.004 11 61.5 12.08 61.5 13.472C61.5 14.464 61.236 15.296 60.708 15.968C60.196 16.624 59.508 17.072 58.644 17.312ZM52.548 15.8H54.924C56.108 15.8 56.7 15.312 56.7 14.336C56.7 13.328 56.108 12.824 54.924 12.824H52.548V15.8ZM55.284 22.208C56.468 22.208 57.06 21.712 57.06 20.72C57.06 20.208 56.9 19.816 56.58 19.544C56.276 19.272 55.836 19.136 55.26 19.136H52.548V22.208H55.284ZM74.6496 23.24H68.6496L67.7376 26H62.7936L68.9616 9.08H74.3856L80.5296 26H75.5616L74.6496 23.24ZM73.4736 19.64L71.6496 14.168L69.8496 19.64H73.4736ZM97.7348 26H93.0308L86.7668 16.544V26H82.0628V9.08H86.7668L93.0308 18.656V9.08H97.7348V26ZM110.422 26L105.118 18.584V26H100.414V9.08H105.118V16.376L110.374 9.08H115.798L109.582 17.288L116.11 26H110.422Z" fill="url(#paint3_linear_369_1994)"/>
<defs>
<linearGradient id="paint0_linear_369_1994" x1="2.5" y1="15" x2="30.5002" y2="15" gradientUnits="userSpaceOnUse">
<stop stop-color="#3D4E81"/>
<stop offset="0.48" stop-color="#5753C9"/>
<stop offset="1" stop-color="#6E7FF3"/>
</linearGradient>
<linearGradient id="paint1_linear_369_1994" x1="4.5" y1="24.5" x2="28.5" y2="24.5" gradientUnits="userSpaceOnUse">
<stop stop-color="#3D4E81"/>
<stop offset="0.48" stop-color="#5753C9"/>
<stop offset="1" stop-color="#6E7FF3"/>
</linearGradient>
<linearGradient id="paint2_linear_369_1994" x1="2.5" y1="28.5" x2="30.5" y2="28.5" gradientUnits="userSpaceOnUse">
<stop stop-color="#3D4E81"/>
<stop offset="0.48" stop-color="#5753C9"/>
<stop offset="1" stop-color="#6E7FF3"/>
</linearGradient>
<linearGradient id="paint3_linear_369_1994" x1="46.5" y1="18" x2="116.5" y2="18" gradientUnits="userSpaceOnUse">
<stop stop-color="white" stop-opacity="0.15"/>
<stop offset="1" stop-color="white" stop-opacity="0.49"/>
</linearGradient>
</defs>
</svg>
