<svg width="17" height="22" viewBox="0 0 17 22" fill="none" xmlns="http://www.w3.org/2000/svg">
<path fill-rule="evenodd" clip-rule="evenodd" d="M17 17.614C17 21.0973 12.149 21.5 8.50107 21.5L8.24002 21.4998C5.91588 21.4942 0 21.3497 0 17.5928C0 14.1805 4.65606 13.7245 8.27621 13.7073L8.76211 13.707C11.0861 13.7126 17 13.8571 17 17.614ZM8.50107 15.2921C3.92803 15.2921 1.60985 16.0657 1.60985 17.5928C1.60985 19.1337 3.92803 19.9147 8.50107 19.9147C13.073 19.9147 15.3902 19.1411 15.3902 17.614C15.3902 16.0731 13.073 15.2921 8.50107 15.2921ZM8.50107 0.5C11.6435 0.5 14.1989 3.01741 14.1989 6.11187C14.1989 9.20632 11.6435 11.7227 8.50107 11.7227H8.46673C5.33074 11.7132 2.7904 9.19469 2.8011 6.10869C2.8011 3.01741 5.35758 0.5 8.50107 0.5ZM8.50107 2.00918C6.20328 2.00918 4.33369 3.84915 4.33369 6.11187C4.3262 8.36718 6.18182 10.2061 8.46995 10.2146L8.50107 10.9691V10.2146C10.7978 10.2146 12.6663 8.37352 12.6663 6.11187C12.6663 3.84915 10.7978 2.00918 8.50107 2.00918Z" fill="#575757"/>
</svg>
