<svg width="20" height="20" viewBox="0 0 20 20" fill="none" xmlns="http://www.w3.org/2000/svg">
<g id="Group">
<path id="Vector" d="M14.5 7.30176C16.4575 7.31256 17.5177 7.39986 18.2089 8.09106C19 8.88216 19 10.1548 19 12.7V13.6C19 16.1461 19 17.4187 18.2089 18.2098C17.4187 19 16.1452 19 13.6 19H6.4C3.8548 19 2.5813 19 1.7911 18.2098C1 17.4178 1 16.1461 1 13.6V12.7C1 10.1548 1 8.88216 1.7911 8.09106C2.4823 7.39986 3.5425 7.31256 5.5 7.30176" stroke="#2EC0FF" stroke-width="1.5" stroke-linecap="round"/>
<path id="Vector_2" d="M10 12.7V1M10 1L12.7 4.15M10 1L7.30005 4.15" stroke="#2EC0FF" stroke-width="1.5" stroke-linecap="round" stroke-linejoin="round"/>
</g>
</svg>
