<svg width="91" height="38" viewBox="0 0 91 38" fill="none" xmlns="http://www.w3.org/2000/svg">
<g clip-path="url(#clip0_369_1934)">
<path d="M16.827 5.27022C15.7677 6.51998 14.0727 7.50571 12.3777 7.36489C12.1659 5.67507 12.9957 3.87964 13.9668 2.77069C15.0261 1.48573 16.88 0.570409 18.3807 0.5C18.5573 2.26023 17.8687 3.98525 16.827 5.27022ZM18.3631 7.69933C15.9089 7.55852 13.8079 9.08991 12.6426 9.08991C11.4596 9.08991 9.6764 7.76974 7.73426 7.80495C5.20948 7.84015 2.86126 9.26594 1.57239 11.5366C-1.07599 16.078 0.883809 22.8021 3.4439 26.4986C4.69746 28.3292 6.19821 30.3359 8.17566 30.2655C10.0472 30.1951 10.7887 29.0509 13.0487 29.0509C15.3263 29.0509 15.9795 30.2655 17.957 30.2303C20.005 30.1951 21.2939 28.3996 22.5475 26.569C23.9776 24.4919 24.5602 22.4676 24.5956 22.362C24.5602 22.3268 20.6407 20.8306 20.6053 16.3245C20.57 12.5576 23.6951 10.7621 23.8364 10.6565C22.0708 8.05138 19.3165 7.76974 18.3631 7.69933ZM32.5407 2.59467V30.0366H36.8134V20.6546H42.7281C48.1307 20.6546 51.9267 16.9581 51.9267 11.607C51.9267 6.25595 48.2014 2.59467 42.8693 2.59467H32.5407ZM36.8134 6.18554H41.7393C45.4471 6.18554 47.5658 8.15699 47.5658 11.6246C47.5658 15.0923 45.4471 17.0814 41.7217 17.0814H36.8134V6.18554ZM59.7306 30.2479C62.4143 30.2479 64.9038 28.8925 66.0337 26.745H66.122V30.0366H70.0769V16.3773C70.0769 12.4167 66.8989 9.86442 62.0082 9.86442C57.4707 9.86442 54.1161 12.452 53.9925 16.0076H57.8414C58.1592 14.3178 59.7306 13.2088 61.8846 13.2088C64.4977 13.2088 65.9631 14.4234 65.9631 16.6589V18.1727L60.6311 18.4895C55.6698 18.7888 52.9861 20.813 52.9861 24.3335C52.9861 27.8892 55.7581 30.2479 59.7306 30.2479ZM60.8782 26.9914C58.6006 26.9914 57.1529 25.9001 57.1529 24.2279C57.1529 22.5029 58.5477 21.4995 61.2137 21.3411L65.9631 21.0419V22.5909C65.9631 25.1608 63.7738 26.9914 60.8782 26.9914ZM75.356 37.5C79.5228 37.5 81.4826 35.9158 83.1952 31.1104L90.6989 10.1284H86.3556L81.3237 26.3402H81.2354L76.2035 10.1284H71.7366L78.9754 30.107L78.587 31.3216C77.9337 33.3811 76.8744 34.1732 74.9852 34.1732C74.6498 34.1732 73.9965 34.138 73.7317 34.1028V37.3944C73.9788 37.4648 75.0382 37.5 75.356 37.5Z" fill="white"/>
</g>
<defs>
<clipPath id="clip0_369_1934">
<rect width="90.3977" height="37" fill="white" transform="translate(0.301025 0.5)"/>
</clipPath>
</defs>
</svg>
