<svg width="124" height="40" viewBox="0 0 124 40" fill="none" xmlns="http://www.w3.org/2000/svg">
<path d="M20 15C17.2386 15 15 17.2386 15 20C15 22.7614 17.2386 25 20 25C22.7614 25 25 22.7614 25 20C25 17.2386 22.7614 15 20 15Z" stroke="url(#paint0_linear_369_1983)" stroke-width="2.5" stroke-linecap="round" stroke-linejoin="round"/>
<path fill-rule="evenodd" clip-rule="evenodd" d="M12.5066 31.25L27.4939 31.25L27.507 31.25L36.25 31.25C37.6307 31.25 38.75 30.1307 38.75 28.75L38.75 21.2561L38.75 21.2429L38.75 18.7569C38.75 18.7526 38.75 18.7484 38.75 18.7441L38.75 11.25C38.75 9.86929 37.6307 8.75 36.25 8.75L27.5067 8.75C27.5026 8.74998 27.4984 8.74998 27.4943 8.75L12.5052 8.75L12.4938 8.75L3.74999 8.75C2.36928 8.74999 1.24999 9.86928 1.24999 11.25L1.24999 18.7436L1.24999 18.7574L1.24999 21.2428L1.24999 21.2562L1.24998 28.75C1.24998 30.1307 2.36927 31.25 3.74998 31.25L12.4924 31.25L12.5066 31.25ZM27.0303 11.25L12.9697 11.25L3.74999 19.3172L3.74999 20.6828L12.9697 28.75L27.0303 28.75L36.25 20.6828L36.25 19.3172L27.0303 11.25ZM36.25 15.9953L36.25 11.25L30.8268 11.25L36.25 15.9953ZM36.25 24.0047L30.8268 28.75L36.25 28.75L36.25 24.0047ZM3.74999 15.9953L3.74999 11.25L9.17318 11.25L3.74999 15.9953ZM3.74998 28.75L9.17317 28.75L3.74999 24.0047L3.74998 28.75Z" fill="url(#paint1_linear_369_1983)"/>
<path d="M54.768 19.504C54.768 17.84 55.112 16.36 55.8 15.064C56.504 13.752 57.496 12.736 58.776 12.016C60.056 11.28 61.528 10.912 63.192 10.912C65.304 10.912 67.08 11.48 68.52 12.616C69.96 13.736 70.888 15.264 71.304 17.2H66.24C65.936 16.56 65.512 16.072 64.968 15.736C64.44 15.4 63.824 15.232 63.12 15.232C62.032 15.232 61.16 15.624 60.504 16.408C59.864 17.176 59.544 18.208 59.544 19.504C59.544 20.816 59.864 21.864 60.504 22.648C61.16 23.416 62.032 23.8 63.12 23.8C63.824 23.8 64.44 23.632 64.968 23.296C65.512 22.96 65.936 22.472 66.24 21.832H71.304C70.888 23.768 69.96 25.304 68.52 26.44C67.08 27.56 65.304 28.12 63.192 28.12C61.528 28.12 60.056 27.76 58.776 27.04C57.496 26.304 56.504 25.288 55.8 23.992C55.112 22.68 54.768 21.184 54.768 19.504ZM84.2355 25.24H78.2355L77.3235 28H72.3795L78.5475 11.08H83.9715L90.1155 28H85.1475L84.2355 25.24ZM83.0595 21.64L81.2355 16.168L79.4355 21.64H83.0595ZM98.0327 28.168C96.0647 28.168 94.4487 27.704 93.1847 26.776C91.9207 25.832 91.2407 24.488 91.1447 22.744H96.1607C96.2087 23.336 96.3847 23.768 96.6887 24.04C96.9927 24.312 97.3847 24.448 97.8647 24.448C98.2967 24.448 98.6487 24.344 98.9207 24.136C99.2087 23.912 99.3527 23.608 99.3527 23.224C99.3527 22.728 99.1207 22.344 98.6567 22.072C98.1927 21.8 97.4407 21.496 96.4007 21.16C95.2967 20.792 94.4007 20.44 93.7127 20.104C93.0407 19.752 92.4487 19.248 91.9367 18.592C91.4407 17.92 91.1927 17.048 91.1927 15.976C91.1927 14.888 91.4647 13.96 92.0087 13.192C92.5527 12.408 93.3047 11.816 94.2647 11.416C95.2247 11.016 96.3127 10.816 97.5287 10.816C99.4967 10.816 101.065 11.28 102.233 12.208C103.417 13.12 104.049 14.408 104.129 16.072H99.0167C99.0007 15.56 98.8407 15.176 98.5367 14.92C98.2487 14.664 97.8727 14.536 97.4087 14.536C97.0567 14.536 96.7687 14.64 96.5447 14.848C96.3207 15.056 96.2087 15.352 96.2087 15.736C96.2087 16.056 96.3287 16.336 96.5687 16.576C96.8247 16.8 97.1367 17 97.5047 17.176C97.8727 17.336 98.4167 17.544 99.1367 17.8C100.209 18.168 101.089 18.536 101.777 18.904C102.481 19.256 103.081 19.76 103.577 20.416C104.089 21.056 104.345 21.872 104.345 22.864C104.345 23.872 104.089 24.776 103.577 25.576C103.081 26.376 102.353 27.008 101.393 27.472C100.449 27.936 99.3287 28.168 98.0327 28.168ZM121.676 11.08V28H116.972V21.208H111.236V28H106.532V11.08H111.236V17.44H116.972V11.08H121.676Z" fill="url(#paint2_linear_369_1983)"/>
<defs>
<linearGradient id="paint0_linear_369_1983" x1="25" y1="20" x2="15" y2="20" gradientUnits="userSpaceOnUse">
<stop stop-color="#0BA360"/>
<stop offset="1" stop-color="#3CBA92"/>
</linearGradient>
<linearGradient id="paint1_linear_369_1983" x1="38.75" y1="20" x2="1.24999" y2="20" gradientUnits="userSpaceOnUse">
<stop stop-color="#0BA360"/>
<stop offset="1" stop-color="#3CBA92"/>
</linearGradient>
<linearGradient id="paint2_linear_369_1983" x1="54" y1="20" x2="124" y2="20" gradientUnits="userSpaceOnUse">
<stop stop-color="white" stop-opacity="0.15"/>
<stop offset="1" stop-color="white" stop-opacity="0.49"/>
</linearGradient>
</defs>
</svg>
