<svg width="80" height="40" viewBox="0 0 80 40" fill="none" xmlns="http://www.w3.org/2000/svg">
<g clip-path="url(#clip0_369_1937)">
<path d="M37.8 20.6502V29.9502H34.8V6.9502H42.6C44.5 6.9502 46.3001 7.6502 47.7001 8.9502C49.1 10.1502 49.8 11.9502 49.8 13.8502C49.8 15.7502 49.1 17.4502 47.7001 18.7502C46.3001 20.0502 44.6 20.7502 42.6 20.7502L37.8 20.6502ZM37.8 9.7502V17.7502H42.8C43.9 17.7502 45.0001 17.3502 45.7001 16.5502C47.3001 15.0502 47.3 12.5502 45.8 11.0502L45.7001 10.9502C44.9001 10.1502 43.9 9.6502 42.8 9.7502H37.8Z" fill="#5F6368"/>
<path d="M56.7001 13.75C58.9001 13.75 60.6001 14.35 61.9001 15.55C63.2001 16.75 63.8 18.35 63.8 20.35V29.95H61V27.75H60.9001C59.7001 29.55 58 30.45 56 30.45C54.3 30.45 52.8 29.95 51.6 28.95C50.5 27.95 49.8 26.55 49.8 25.05C49.8 23.45 50.4 22.15 51.6 21.15C52.8 20.15 54.5 19.75 56.5 19.75C58.3 19.75 59.7 20.05 60.8 20.75V20.05C60.8 19.05 60.4 18.05 59.6 17.45C58.8 16.75 57.8001 16.35 56.7001 16.35C55.0001 16.35 53.7 17.05 52.8 18.45L50.2001 16.85C51.8001 14.75 53.9001 13.75 56.7001 13.75ZM52.9001 25.15C52.9001 25.95 53.3001 26.65 53.9001 27.05C54.6001 27.55 55.4001 27.85 56.2001 27.85C57.4001 27.85 58.6 27.35 59.5 26.45C60.5 25.55 61 24.45 61 23.25C60.1 22.55 58.8 22.15 57.1 22.15C55.9 22.15 54.9 22.45 54.1 23.05C53.3 23.55 52.9001 24.25 52.9001 25.15Z" fill="#5F6368"/>
<path d="M80 14.25L70.1 36.95H67.1L70.8 29.05L64.3 14.35H67.5L72.2 25.65H72.3L76.9 14.35H80V14.25Z" fill="#5F6368"/>
<path d="M25.9 18.6502C25.9 17.7502 25.8 16.8502 25.7 15.9502H13.2V21.0502H20.3C20 22.6502 19.1 24.1502 17.7 25.0502V28.3502H22C24.5 26.0502 25.9 22.6502 25.9 18.6502Z" fill="#4285F4"/>
<path d="M13.1999 31.5501C16.7999 31.5501 19.7999 30.3501 21.9999 28.3501L17.6999 25.0501C16.4999 25.8501 14.9999 26.3501 13.1999 26.3501C9.7999 26.3501 6.7999 24.0501 5.7999 20.8501H1.3999V24.2501C3.6999 28.7501 8.1999 31.5501 13.1999 31.5501Z" fill="#34A853"/>
<path d="M5.8001 20.8501C5.2001 19.2501 5.2001 17.4501 5.8001 15.7501V12.3501H1.4001C-0.499902 16.0501 -0.499902 20.4501 1.4001 24.2501L5.8001 20.8501Z" fill="#FBBC04"/>
<path d="M13.2 10.3504C15.1 10.3504 16.9 11.0504 18.3 12.3504L22.1 8.5504C19.7 6.3504 16.5 5.0504 13.3 5.1504C8.3 5.1504 3.7 7.9504 1.5 12.4504L5.9 15.8504C6.8 12.6504 9.8 10.3504 13.2 10.3504Z" fill="#EA4335"/>
</g>
<defs>
<clipPath id="clip0_369_1937">
<rect width="80" height="38.1" fill="white" transform="translate(0 0.950195)"/>
</clipPath>
</defs>
</svg>
