<svg width="20" height="22" viewBox="0 0 20 22" fill="none" xmlns="http://www.w3.org/2000/svg">
<path fill-rule="evenodd" clip-rule="evenodd" d="M11.4312 14.4555C12.6059 14.4555 13.562 15.4056 13.562 16.5735V19.5773C13.562 19.8282 13.7629 20.0294 14.0205 20.0352H15.88C17.3454 20.0352 18.5366 18.8576 18.5366 17.4104V8.89136C18.5298 8.39334 18.2927 7.92462 17.8859 7.61311L11.4537 2.47864C10.5902 1.79411 9.38244 1.79411 8.5161 2.4806L2.1278 7.61116C1.70537 7.93243 1.46829 8.40115 1.46341 8.90796V17.4104C1.46341 18.8576 2.65463 20.0352 4.12 20.0352H5.99707C6.26146 20.0352 6.4761 19.8253 6.4761 19.5675C6.4761 19.5109 6.48293 19.4542 6.49463 19.4005V16.5735C6.49463 15.4125 7.44488 14.4633 8.61073 14.4555H11.4312ZM15.88 21.5H14.0029C12.9278 21.4746 12.0985 20.6299 12.0985 19.5773V16.5735C12.0985 16.2132 11.799 15.9202 11.4312 15.9202H8.61561C8.25561 15.9222 7.95805 16.2161 7.95805 16.5735V19.5675C7.95805 19.6407 7.94829 19.711 7.92781 19.7774C7.82244 20.7442 6.99707 21.5 5.99707 21.5H4.12C1.8478 21.5 0 19.6651 0 17.4104V8.90112C0.0097561 7.93048 0.456585 7.04186 1.22829 6.45693L7.6039 1.33516C9.0078 0.22194 10.9639 0.22194 12.3649 1.3332L18.7863 6.45986C19.5405 7.03502 19.9873 7.92169 20 8.88062V17.4104C20 19.6651 18.1522 21.5 15.88 21.5Z" fill="#575757"/>
</svg>
